# xmcd CD database file
#
# Track frame offsets:
#	150
#	16428
#	32871
#	54809
#	69931
#	82603
#	105372
#	124814
#	150840
#	166680
#	181373
#
# Disc length: 2631 seconds
#
# Revision: 0
# Processed by: cddbd v1.5.2PL0 Copyright (c) Steve Scherf et al.
# Submitted via: CDex 1.51
#
DISCID=6d0a450b
DTITLE=Gia Ciambotti - Right As Rain
DYEAR=2007
DGENRE=Rhythmic Soul
TTITLE0=Right As Rain
TTITLE1=Forever Girl
TTITLE2=Tail Wags The Dog
TTITLE3=What's The Cure
TTITLE4=Some Other Way
TTITLE5=See Your Dreams
TTITLE6=No Less Than Angels
TTITLE7=Bobilicious
TTITLE8=Time To Go
TTITLE9=Lovelight
TTITLE10=That's How Strong
EXTD=YEAR: 2007
EXTT0=
EXTT1=
EXTT2=
EXTT3=
EXTT4=
EXTT5=
EXTT6=
EXTT7=
EXTT8=
EXTT9=
EXTT10=
PLAYORDER=
